<svg width="19" height="30" viewBox="0 0 19 30" fill="none" xmlns="http://www.w3.org/2000/svg">
<path d="M1.28013 11.9236C1.18949 11.4365 1.1101 10.9324 1.04779 10.4169C0.430368 5.3812 1.52932 1.10451 3.50055 0.860936C5.47178 0.617364 7.57898 4.50885 8.1964 9.54456C8.26438 10.111 8.31536 10.7058 8.34369 11.2439M1.61998 3.61953L4.08402 4.5485M0.877937 6.89358L3.90842 8.20773M3.48925 24.9859H15.0278M9.39158 12.1275C8.98722 11.7425 8.6653 11.2795 8.44524 10.7663C8.22519 10.2532 8.11159 9.70071 8.1114 9.14239C8.1114 8.05119 8.54459 7.0046 9.31566 6.23247C10.0867 5.46035 11.1326 5.02582 12.2238 5.02431C13.316 5.02431 14.3634 5.45818 15.1357 6.23047C15.908 7.00275 16.3419 8.05021 16.3419 9.14239C16.3427 9.60316 16.2662 10.0608 16.1154 10.4962M12.2238 6.38943C12.2238 6.38943 12.0991 3.80644 14.0477 2.56026M1.12722 12.1275L2.26011 10.6265C2.34209 10.5196 2.44755 10.4329 2.56837 10.3733C2.68919 10.3137 2.82211 10.2827 2.95683 10.2827C3.09155 10.2827 3.22448 10.3137 3.3453 10.3733C3.46611 10.4329 3.57157 10.5196 3.65355 10.6265L4.70139 11.9973C4.74204 12.0512 4.79472 12.095 4.85517 12.1251C4.91563 12.1553 4.9822 12.171 5.04975 12.171C5.1173 12.171 5.18401 12.1553 5.24446 12.1251C5.30492 12.095 5.35746 12.0512 5.39811 11.9973L6.44609 10.6265C6.52807 10.5196 6.63352 10.4329 6.75434 10.3733C6.87516 10.3137 7.00808 10.2827 7.1428 10.2827C7.27753 10.2827 7.41045 10.3137 7.53127 10.3733C7.65209 10.4329 7.75754 10.5196 7.83952 10.6265C7.83952 10.6265 8.40597 11.3798 8.83647 11.9519C8.88298 12.013 8.94305 12.0625 9.01183 12.0966C9.0806 12.1306 9.15621 12.1483 9.23296 12.1483C9.30971 12.1483 9.38545 12.1306 9.45422 12.0966C9.523 12.0625 9.58307 12.013 9.62958 11.9519L10.6491 10.6378C10.7305 10.5309 10.8354 10.4443 10.9558 10.3847C11.0762 10.3251 11.2087 10.2941 11.343 10.2941C11.4773 10.2941 11.6099 10.3251 11.7302 10.3847C11.8506 10.4443 11.9556 10.5309 12.037 10.6378L13.0848 12.0086C13.126 12.0626 13.1792 12.1064 13.2401 12.1365C13.301 12.1667 13.3681 12.1823 13.4361 12.1823C13.504 12.1823 13.571 12.1667 13.6319 12.1365C13.6928 12.1064 13.746 12.0626 13.7872 12.0086L14.8352 10.6378C14.9166 10.5309 15.0216 10.4443 15.1419 10.3847C15.2623 10.3251 15.3947 10.2941 15.529 10.2941C15.6633 10.2941 15.7959 10.3251 15.9162 10.3847C16.0366 10.4443 16.1416 10.5309 16.2229 10.6378L17.3558 12.1389C17.5157 12.3534 17.603 12.6133 17.605 12.8809V26.8551C17.605 27.0433 17.5679 27.2297 17.4959 27.4035C17.4239 27.5774 17.3184 27.7354 17.1853 27.8685C17.0522 28.0016 16.8943 28.1071 16.7204 28.1791C16.5465 28.2511 16.3601 28.2882 16.1719 28.2882H2.27712C1.89802 28.2867 1.53485 28.1351 1.26731 27.8665C0.999778 27.5979 0.849667 27.2342 0.84967 26.8551V12.8696C0.856902 12.5982 0.954587 12.337 1.12722 12.1275Z" stroke="#F1FFF3" stroke-width="1.69934" stroke-linecap="round" stroke-linejoin="round"/>
</svg>
