<svg width="27" height="26" viewBox="0 0 27 26" fill="none" xmlns="http://www.w3.org/2000/svg">
<path d="M18.1733 12.0171L10.806 16.7454C10.666 16.8352 10.4874 16.8391 10.3437 16.7553L1.10652 11.3753C0.820318 11.2086 0.811509 10.7983 1.0903 10.6194L16.155 0.956306C16.295 0.866531 16.4734 0.86267 16.6171 0.946309L25.8541 6.32215C26.1404 6.48876 26.1493 6.89914 25.8705 7.07803L21.5212 9.8687M18.1778 15.7724L10.8059 20.5008C10.6659 20.5905 10.4875 20.5944 10.3438 20.5108L1.1064 15.1347C0.820201 14.9681 0.811188 14.5579 1.0898 14.3789L3.55085 12.798M23.41 8.65908L25.8539 10.0817C26.1402 10.2484 26.149 10.6589 25.8701 10.8377L21.481 13.651M23.5891 12.297L25.8833 13.7188C26.1602 13.8904 26.1634 14.2923 25.8891 14.4683L10.806 24.1475C10.666 24.2374 10.4874 24.2412 10.3437 24.1575L1.10652 18.7775C0.820315 18.6108 0.811505 18.2004 1.09029 18.0216L3.45685 16.5036M11.6223 4.15107L21.2608 9.7631C21.3971 9.84246 21.481 9.98829 21.481 10.146V17.0514C21.481 17.2023 21.4042 17.3427 21.2773 17.4242L18.8603 18.9765C18.5654 19.1659 18.1778 18.9541 18.1778 18.6036V12.2718C18.1778 12.1141 18.094 11.9683 17.9578 11.8889L8.71033 6.50049C8.42429 6.33381 8.41541 5.92372 8.69398 5.74482L11.1599 4.16116C11.2999 4.07124 11.4785 4.06735 11.6223 4.15107Z" stroke="#F1FFF3" stroke-width="1.77237" stroke-linecap="round" stroke-linejoin="round"/>
</svg>
